<svg width="933" height="375" viewBox="0 0 933 375" fill="none" xmlns="http://www.w3.org/2000/svg">
<rect width="933" height="375" fill="white"/>
<path d="M360.842 49.0642V47.0833L376.748 38.9617V42.1311L364.547 48.0242L364.645 47.8261V48.3213L364.547 48.1232L376.748 54.0163V57.1857L360.842 49.0642Z" fill="#129578"/>
<path d="M384.358 60.3551H381.147L390.433 35H393.595L402.881 60.3551H399.67L392.113 39.0113H391.915L384.358 60.3551ZM385.543 50.4508H398.485V53.1745H385.543V50.4508Z" fill="#129578"/>
<path d="M423.171 49.0642L407.265 57.1857V54.0163L419.466 48.1232L419.367 48.3213V47.8261L419.466 48.0242L407.265 42.1311V38.9617L423.171 47.0833V49.0642Z" fill="#129578"/>
<path d="M507.263 142.644V140.664L523.169 132.542V135.711L510.968 141.605L511.066 141.406V141.902L510.968 141.704L523.169 147.597V150.766L507.263 142.644Z" fill="#129578"/>
<path d="M529.741 153.935V128.58H538.583C540.345 128.58 541.798 128.886 542.942 129.496C544.087 130.099 544.939 130.912 545.499 131.935C546.059 132.951 546.338 134.077 546.338 135.315C546.338 136.405 546.145 137.304 545.758 138.014C545.379 138.724 544.877 139.285 544.251 139.698C543.634 140.111 542.963 140.416 542.239 140.614V140.862C543.012 140.911 543.79 141.184 544.573 141.679C545.355 142.174 546.009 142.884 546.536 143.808C547.063 144.733 547.326 145.863 547.326 147.2C547.326 148.472 547.038 149.615 546.462 150.63C545.886 151.645 544.976 152.45 543.733 153.044C542.49 153.638 540.872 153.935 538.88 153.935H529.741ZM532.804 151.212H538.88C540.88 151.212 542.3 150.824 543.14 150.048C543.988 149.264 544.412 148.315 544.412 147.2C544.412 146.342 544.194 145.55 543.758 144.823C543.321 144.089 542.7 143.503 541.893 143.065C541.086 142.62 540.131 142.397 539.028 142.397H532.804V151.212ZM532.804 139.723H538.484C539.407 139.723 540.238 139.541 540.979 139.178C541.728 138.815 542.321 138.303 542.757 137.643C543.202 136.983 543.424 136.207 543.424 135.315C543.424 134.201 543.037 133.256 542.263 132.48C541.489 131.696 540.263 131.304 538.583 131.304H532.804V139.723Z" fill="#129578"/>
<path d="M568.709 142.644L552.803 150.766V147.597L565.004 141.704L564.905 141.902V141.406L565.004 141.605L552.803 135.711V132.542L568.709 140.664V142.644Z" fill="#129578"/>
<path d="M214.421 142.644V140.664L230.326 132.542V135.711L218.126 141.605L218.224 141.406V141.902L218.126 141.704L230.326 147.597V150.766L214.421 142.644Z" fill="#129578"/>
<path d="M238.381 128.58L244.901 139.128H245.099L251.619 128.58H255.225L247.272 141.258L255.225 153.935H251.619L245.099 143.585H244.901L238.381 153.935H234.775L242.926 141.258L234.775 128.58H238.381Z" fill="#129578"/>
<path d="M275.561 142.644L259.656 150.766V147.597L271.856 141.704L271.758 141.902V141.406L271.856 141.605L259.656 135.711V132.542L275.561 140.664V142.644Z" fill="#129578"/>
<path d="M68 236.225V234.244L83.9056 226.123V229.292L71.7047 235.185L71.8035 234.987V235.482L71.7047 235.284L83.9056 241.177V244.346L68 236.225Z" fill="#129578"/>
<path d="M88.3049 222.161H91.8121L98.8263 233.996H99.1227L106.137 222.161H109.644L100.506 237.067V247.516H97.4433V237.067L88.3049 222.161Z" fill="#129578"/>
<path d="M129.955 236.225L114.05 244.346V241.177L126.251 235.284L126.152 235.482V234.987L126.251 235.185L114.05 229.292V226.123L129.955 234.244V236.225Z" fill="#129578"/>
<path d="M360.842 236.225V234.244L376.748 226.123V229.292L364.547 235.185L364.645 234.987V235.482L364.547 235.284L376.748 241.177V244.346L360.842 236.225Z" fill="#129578"/>
<path d="M382.481 247.516V245.287L396.114 224.884H382.332V222.161H399.769V224.389L386.136 244.792H399.917V247.516H382.481Z" fill="#129578"/>
<path d="M421.405 236.225L405.499 244.346V241.177L417.7 235.284L417.601 235.482V234.987L417.7 235.185L405.499 229.292V226.123L421.405 234.244V236.225Z" fill="#129578"/>
<path d="M653.684 236.225V234.244L669.589 226.123V229.292L657.388 235.185L657.487 234.987V235.482L657.388 235.284L669.589 241.177V244.347L653.684 236.225Z" fill="#129578"/>
<path d="M696.513 230.084H693.451C693.27 229.201 692.953 228.425 692.5 227.757C692.055 227.088 691.512 226.527 690.87 226.073C690.236 225.611 689.532 225.264 688.758 225.033C687.984 224.802 687.177 224.686 686.338 224.686C684.806 224.686 683.419 225.074 682.176 225.85C680.941 226.626 679.957 227.769 679.225 229.28C678.5 230.79 678.138 232.643 678.138 234.838C678.138 237.034 678.5 238.887 679.225 240.397C679.957 241.908 680.941 243.051 682.176 243.827C683.419 244.602 684.806 244.99 686.338 244.99C687.177 244.99 687.984 244.875 688.758 244.644C689.532 244.413 690.236 244.07 690.87 243.616C691.512 243.154 692.055 242.589 692.5 241.92C692.953 241.243 693.27 240.467 693.451 239.592H696.513C696.283 240.888 695.863 242.048 695.254 243.071C694.644 244.095 693.887 244.966 692.981 245.684C692.076 246.393 691.059 246.934 689.931 247.305C688.812 247.677 687.614 247.863 686.338 247.863C684.181 247.863 682.262 247.334 680.583 246.278C678.903 245.221 677.582 243.719 676.619 241.771C675.656 239.824 675.174 237.513 675.174 234.838C675.174 232.164 675.656 229.853 676.619 227.905C677.582 225.958 678.903 224.455 680.583 223.399C682.262 222.342 684.181 221.814 686.338 221.814C687.614 221.814 688.812 222 689.931 222.371C691.059 222.743 692.076 223.287 692.981 224.006C693.887 224.715 694.644 225.582 695.254 226.605C695.863 227.621 696.283 228.78 696.513 230.084Z" fill="#129578"/>
<path d="M717.812 236.225L701.907 244.347V241.177L714.108 235.284L714.009 235.482V234.987L714.108 235.185L701.907 229.292V226.123L717.812 234.244V236.225Z" fill="#129578"/>
<path d="M800.105 329.805V327.825L816.01 319.703V322.872L803.809 328.765L803.908 328.567V329.063L803.809 328.864L816.01 334.758V337.927L800.105 329.805Z" fill="#129578"/>
<path d="M830.388 341.096H822.583V315.741H830.733C833.187 315.741 835.286 316.249 837.031 317.264C838.777 318.271 840.114 319.719 841.045 321.61C841.975 323.491 842.44 325.745 842.44 328.369C842.44 331.01 841.971 333.284 841.032 335.191C840.094 337.089 838.727 338.55 836.933 339.574C835.138 340.589 832.956 341.096 830.388 341.096ZM825.646 338.373H830.19C832.281 338.373 834.014 337.968 835.389 337.159C836.764 336.35 837.789 335.199 838.464 333.705C839.139 332.211 839.476 330.433 839.476 328.369C839.476 326.322 839.143 324.56 838.476 323.083C837.809 321.597 836.813 320.458 835.488 319.666C834.162 318.865 832.512 318.465 830.536 318.465H825.646V338.373Z" fill="#129578"/>
<path d="M863.928 329.805L848.022 337.927V334.758L860.223 328.864L860.124 329.063V328.567L860.223 328.765L848.022 322.872V319.703L863.928 327.825V329.805Z" fill="#129578"/>
<path d="M507.263 329.805V327.825L523.169 319.703V322.872L510.968 328.765L511.066 328.567V329.063L510.968 328.864L523.169 334.758V337.927L507.263 329.805Z" fill="#129578"/>
<path d="M529.741 341.096V315.741H545.005V318.465H532.804V327.032H544.214V329.756H532.804V338.373H545.202V341.096H529.741Z" fill="#129578"/>
<path d="M566.875 329.805L550.969 337.927V334.758L563.17 328.864L563.071 329.063V328.567L563.17 328.765L550.969 322.872V319.703L566.875 327.825V329.805Z" fill="#129578"/>
<path fill-rule="evenodd" clip-rule="evenodd" d="M392.11 100.723V75.0344H393.94V100.723H392.11Z" fill="black"/>
<path fill-rule="evenodd" clip-rule="evenodd" d="M245.689 119.072V100.723H247.519V119.072H245.689Z" fill="black"/>
<path fill-rule="evenodd" clip-rule="evenodd" d="M534.87 119.072V100.723H536.7V119.072H534.87Z" fill="black"/>
<path fill-rule="evenodd" clip-rule="evenodd" d="M536.7 100.723H245.689V98.8882H536.7V100.723Z" fill="black"/>
<path fill-rule="evenodd" clip-rule="evenodd" d="M410.412 91.5486V75.0344H412.242V91.5486H410.412Z" fill="#C51D1D"/>
<path fill-rule="evenodd" clip-rule="evenodd" d="M587.948 177.789V89.7137H589.778V177.789H587.948Z" fill="#C51D1D"/>
<path fill-rule="evenodd" clip-rule="evenodd" d="M743.52 264.03V175.954H745.35V264.03H743.52Z" fill="#C51D1D"/>
<path fill-rule="evenodd" clip-rule="evenodd" d="M842.354 298.893V264.03H844.184V298.893H842.354Z" fill="#C51D1D"/>
<path fill-rule="evenodd" clip-rule="evenodd" d="M589.778 91.5487H412.242V89.7137H589.778V91.5487Z" fill="#C51D1D"/>
<path fill-rule="evenodd" clip-rule="evenodd" d="M743.52 177.789H587.948V175.954H743.52V177.789Z" fill="#C51D1D"/>
<path fill-rule="evenodd" clip-rule="evenodd" d="M844.184 264.03H743.52V262.195H844.184V264.03Z" fill="#C51D1D"/>
<path fill-rule="evenodd" clip-rule="evenodd" d="M247.519 188.799V163.11H249.349V188.799H247.519Z" fill="black"/>
<path fill-rule="evenodd" clip-rule="evenodd" d="M101.098 207.148V188.799H102.928V207.148H101.098Z" fill="black"/>
<path fill-rule="evenodd" clip-rule="evenodd" d="M390.279 207.148V188.799H392.11V207.148H390.279Z" fill="black"/>
<path fill-rule="evenodd" clip-rule="evenodd" d="M392.11 188.799H101.098V186.964H392.11V188.799Z" fill="black"/>
<path fill-rule="evenodd" clip-rule="evenodd" d="M534.87 188.799V163.11H536.7V188.799H534.87Z" fill="black"/>
<path fill-rule="evenodd" clip-rule="evenodd" d="M677.63 207.148V188.799H679.461V207.148H677.63Z" fill="black"/>
<path fill-rule="evenodd" clip-rule="evenodd" d="M679.461 188.799H534.87V186.964H679.461V188.799Z" fill="black"/>
<path fill-rule="evenodd" clip-rule="evenodd" d="M686.782 280.544V254.856H688.612V280.544H686.782Z" fill="black"/>
<path fill-rule="evenodd" clip-rule="evenodd" d="M540.361 298.893V280.544H542.191V298.893H540.361Z" fill="black"/>
<path fill-rule="evenodd" clip-rule="evenodd" d="M829.542 298.893V280.544H831.372V298.893H829.542Z" fill="black"/>
<path fill-rule="evenodd" clip-rule="evenodd" d="M831.372 280.544H540.361V278.709H831.372V280.544Z" fill="black"/>
<path d="M633.969 142.926V125.578H639.816C641.174 125.578 642.284 125.823 643.145 126.315C644.013 126.8 644.655 127.458 645.072 128.288C645.489 129.119 645.697 130.045 645.697 131.067C645.697 132.089 645.489 133.018 645.072 133.854C644.661 134.69 644.024 135.356 643.162 135.853C642.3 136.344 641.196 136.59 639.85 136.59H635.659V134.726H639.783C640.712 134.726 641.458 134.565 642.022 134.243C642.585 133.922 642.993 133.487 643.247 132.939C643.506 132.385 643.635 131.761 643.635 131.067C643.635 130.372 643.506 129.751 643.247 129.203C642.993 128.655 642.582 128.226 642.013 127.916C641.444 127.599 640.689 127.441 639.749 127.441H636.065V142.926H633.969Z" fill="#C51D1D"/>
<path d="M648.802 142.926V129.915H650.729V131.88H650.864C651.1 131.236 651.529 130.714 652.148 130.313C652.768 129.912 653.466 129.712 654.244 129.712C654.39 129.712 654.573 129.714 654.793 129.72C655.012 129.726 655.179 129.734 655.291 129.745V131.778C655.224 131.761 655.069 131.736 654.827 131.702C654.59 131.663 654.339 131.643 654.075 131.643C653.444 131.643 652.88 131.776 652.385 132.041C651.895 132.301 651.506 132.662 651.219 133.125C650.937 133.583 650.796 134.105 650.796 134.692V142.926H648.802Z" fill="#C51D1D"/>
<path d="M662.532 143.197C661.361 143.197 660.333 142.918 659.448 142.358C658.57 141.799 657.882 141.017 657.387 140.012C656.897 139.007 656.652 137.832 656.652 136.488C656.652 135.133 656.897 133.95 657.387 132.939C657.882 131.928 658.57 131.143 659.448 130.584C660.333 130.025 661.361 129.745 662.532 129.745C663.704 129.745 664.729 130.025 665.608 130.584C666.492 131.143 667.18 131.928 667.67 132.939C668.165 133.95 668.413 135.133 668.413 136.488C668.413 137.832 668.165 139.007 667.67 140.012C667.18 141.017 666.492 141.799 665.608 142.358C664.729 142.918 663.704 143.197 662.532 143.197ZM662.532 141.401C663.422 141.401 664.155 141.173 664.729 140.715C665.304 140.258 665.729 139.656 666.005 138.911C666.281 138.165 666.419 137.358 666.419 136.488C666.419 135.618 666.281 134.808 666.005 134.057C665.729 133.306 665.304 132.699 664.729 132.236C664.155 131.773 663.422 131.541 662.532 131.541C661.642 131.541 660.91 131.773 660.336 132.236C659.761 132.699 659.336 133.306 659.06 134.057C658.784 134.808 658.646 135.618 658.646 136.488C658.646 137.358 658.784 138.165 659.06 138.911C659.336 139.656 659.761 140.258 660.336 140.715C660.91 141.173 661.642 141.401 662.532 141.401Z" fill="#C51D1D"/>
<path d="M671.457 147.805V129.915H673.384V131.982H673.62C673.767 131.756 673.969 131.468 674.228 131.118C674.493 130.762 674.871 130.446 675.361 130.169C675.856 129.887 676.527 129.745 677.372 129.745C678.464 129.745 679.428 130.019 680.261 130.567C681.095 131.115 681.746 131.891 682.213 132.897C682.681 133.902 682.914 135.088 682.914 136.454C682.914 137.832 682.681 139.027 682.213 140.037C681.746 141.043 681.098 141.822 680.27 142.375C679.442 142.923 678.487 143.197 677.405 143.197C676.572 143.197 675.904 143.059 675.403 142.782C674.902 142.5 674.516 142.181 674.245 141.825C673.975 141.463 673.767 141.164 673.62 140.927H673.451V147.805H671.457ZM673.417 136.42C673.417 137.403 673.561 138.27 673.848 139.021C674.135 139.766 674.555 140.351 675.107 140.774C675.659 141.192 676.335 141.401 677.135 141.401C677.969 141.401 678.664 141.181 679.222 140.741C679.785 140.294 680.208 139.696 680.489 138.945C680.777 138.188 680.92 137.347 680.92 136.42C680.92 135.506 680.78 134.681 680.498 133.947C680.222 133.207 679.802 132.623 679.239 132.193C678.681 131.759 677.98 131.541 677.135 131.541C676.324 131.541 675.642 131.747 675.09 132.16C674.538 132.566 674.121 133.137 673.84 133.871C673.558 134.599 673.417 135.449 673.417 136.42Z" fill="#C51D1D"/>
<path d="M695.149 132.829L693.358 133.337C693.245 133.038 693.079 132.747 692.859 132.465C692.645 132.177 692.352 131.939 691.981 131.753C691.609 131.567 691.133 131.473 690.553 131.473C689.758 131.473 689.096 131.657 688.567 132.024C688.043 132.385 687.781 132.846 687.781 133.405C687.781 133.902 687.961 134.294 688.322 134.582C688.682 134.87 689.246 135.11 690.012 135.302L691.938 135.777C693.099 136.059 693.963 136.491 694.532 137.073C695.101 137.649 695.386 138.391 695.386 139.3C695.386 140.046 695.172 140.712 694.743 141.3C694.321 141.887 693.73 142.35 692.969 142.689C692.209 143.028 691.324 143.197 690.316 143.197C688.992 143.197 687.897 142.909 687.029 142.333C686.162 141.757 685.613 140.916 685.382 139.809L687.274 139.334C687.455 140.035 687.795 140.56 688.297 140.91C688.804 141.26 689.465 141.435 690.282 141.435C691.212 141.435 691.95 141.237 692.496 140.842C693.048 140.441 693.324 139.961 693.324 139.402C693.324 138.95 693.166 138.572 692.851 138.267C692.535 137.956 692.051 137.725 691.398 137.572L689.235 137.064C688.046 136.782 687.173 136.344 686.615 135.751C686.063 135.153 685.787 134.404 685.787 133.506C685.787 132.772 685.993 132.123 686.404 131.558C686.821 130.993 687.387 130.55 688.102 130.228C688.823 129.906 689.64 129.745 690.553 129.745C691.837 129.745 692.845 130.028 693.577 130.592C694.315 131.157 694.839 131.903 695.149 132.829Z" fill="#C51D1D"/>
</svg>
