<svg width="933" height="374" viewBox="0 0 933 374" fill="none" xmlns="http://www.w3.org/2000/svg">
<rect width="933" height="374" fill="white"/>
<path d="M360.34 48.0984V46.1127L376.327 37.9714V41.1485L364.064 47.0559L364.163 46.8574V47.3538L364.064 47.1552L376.327 53.0627V56.2398L360.34 48.0984Z" fill="#129578"/>
<path d="M383.976 59.4169H380.749L390.083 34H393.261L402.595 59.4169H399.367L391.771 38.021H391.573L383.976 59.4169ZM385.168 49.4884H398.176V52.2187H385.168V49.4884Z" fill="#129578"/>
<path d="M422.988 48.0984L407.001 56.2398V53.0627L419.264 47.1552L419.165 47.3538V46.8574L419.264 47.0559L407.001 41.1485V37.9714L422.988 46.1127V48.0984Z" fill="#129578"/>
<path d="M507.51 141.907V139.921L523.497 131.78V134.957L511.234 140.864L511.333 140.666V141.162L511.234 140.964L523.497 146.871V150.048L507.51 141.907Z" fill="#129578"/>
<path d="M530.104 153.225V127.808H538.991C540.762 127.808 542.222 128.114 543.372 128.727C544.523 129.331 545.379 130.146 545.942 131.172C546.504 132.189 546.786 133.319 546.786 134.56C546.786 135.652 546.591 136.554 546.202 137.265C545.822 137.977 545.317 138.539 544.688 138.953C544.067 139.367 543.393 139.673 542.665 139.871V140.12C543.443 140.169 544.225 140.442 545.011 140.939C545.797 141.435 546.455 142.147 546.984 143.073C547.514 144 547.779 145.134 547.779 146.474C547.779 147.748 547.489 148.894 546.91 149.912C546.331 150.929 545.416 151.736 544.167 152.332C542.917 152.927 541.291 153.225 539.289 153.225H530.104ZM533.182 150.495H539.289C541.299 150.495 542.727 150.106 543.571 149.328C544.423 148.542 544.849 147.591 544.849 146.474C544.849 145.613 544.63 144.819 544.192 144.091C543.753 143.355 543.128 142.767 542.317 142.329C541.506 141.882 540.546 141.659 539.438 141.659H533.182V150.495ZM533.182 138.978H538.892C539.818 138.978 540.654 138.796 541.399 138.432C542.152 138.068 542.748 137.555 543.186 136.893C543.633 136.231 543.856 135.453 543.856 134.56C543.856 133.443 543.467 132.495 542.69 131.718C541.912 130.932 540.679 130.539 538.991 130.539H533.182V138.978Z" fill="#129578"/>
<path d="M569.27 141.907L553.284 150.048V146.871L565.547 140.964L565.448 141.162V140.666L565.547 140.864L553.284 134.957V131.78L569.27 139.921V141.907Z" fill="#129578"/>
<path d="M213.17 141.907V139.921L229.157 131.78V134.957L216.894 140.864L216.993 140.666V141.162L216.894 140.964L229.157 146.871V150.048L213.17 141.907Z" fill="#129578"/>
<path d="M237.253 127.808L243.807 138.382H244.005L250.559 127.808H254.183L246.19 140.517L254.183 153.225H250.559L244.005 142.85H243.807L237.253 153.225H233.629L241.821 140.517L233.629 127.808H237.253Z" fill="#129578"/>
<path d="M274.623 141.907L258.636 150.048V146.871L270.9 140.964L270.8 141.162V140.666L270.9 140.864L258.636 134.957V131.78L274.623 139.921V141.907Z" fill="#129578"/>
<path d="M66 235.715V233.729L81.987 225.588V228.765L69.7237 234.673L69.823 234.474V234.97L69.7237 234.772L81.987 240.679V243.856L66 235.715Z" fill="#129578"/>
<path d="M86.4088 221.617H89.9339L96.9841 233.481H97.282L104.332 221.617H107.857L98.6721 236.559V247.034H95.5939V236.559L86.4088 221.617Z" fill="#129578"/>
<path d="M128.272 235.715L112.285 243.856V240.679L124.549 234.772L124.449 234.97V234.474L124.549 234.673L112.285 228.765V225.588L128.272 233.729V235.715Z" fill="#129578"/>
<path d="M360.34 235.715V233.729L376.327 225.588V228.765L364.064 234.673L364.163 234.474V234.97L364.064 234.772L376.327 240.679V243.856L360.34 235.715Z" fill="#129578"/>
<path d="M382.09 247.034V244.8L395.793 224.347H381.941V221.617H399.467V223.851L385.764 244.303H399.616V247.034H382.09Z" fill="#129578"/>
<path d="M421.213 235.715L405.226 243.856V240.679L417.489 234.772L417.39 234.97V234.474L417.489 234.673L405.226 228.765V225.588L421.213 233.729V235.715Z" fill="#129578"/>
<path d="M654.68 235.715V233.73L670.667 225.588V228.765L658.404 234.673L658.503 234.474V234.971L658.404 234.772L670.667 240.68V243.857L654.68 235.715Z" fill="#129578"/>
<path d="M697.729 229.56H694.651C694.469 228.674 694.15 227.897 693.695 227.226C693.248 226.556 692.702 225.994 692.057 225.539C691.42 225.075 690.712 224.728 689.934 224.496C689.156 224.264 688.346 224.149 687.501 224.149C685.962 224.149 684.568 224.538 683.319 225.315C682.077 226.093 681.089 227.239 680.352 228.753C679.624 230.267 679.26 232.125 679.26 234.325C679.26 236.526 679.624 238.384 680.352 239.898C681.089 241.412 682.077 242.558 683.319 243.335C684.568 244.113 685.962 244.502 687.501 244.502C688.346 244.502 689.156 244.386 689.934 244.155C690.712 243.923 691.42 243.58 692.057 243.124C692.702 242.661 693.248 242.094 693.695 241.424C694.15 240.746 694.469 239.968 694.651 239.091H697.729C697.497 240.39 697.075 241.552 696.463 242.578C695.851 243.604 695.09 244.477 694.179 245.197C693.269 245.909 692.247 246.45 691.113 246.823C689.988 247.195 688.784 247.381 687.501 247.381C685.333 247.381 683.405 246.852 681.717 245.793C680.029 244.734 678.701 243.228 677.733 241.275C676.765 239.323 676.281 237.006 676.281 234.325C676.281 231.645 676.765 229.328 677.733 227.375C678.701 225.423 680.029 223.917 681.717 222.858C683.405 221.799 685.333 221.269 687.501 221.269C688.784 221.269 689.988 221.456 691.113 221.828C692.247 222.2 693.269 222.746 694.179 223.466C695.09 224.178 695.851 225.046 696.463 226.072C697.075 227.09 697.497 228.252 697.729 229.56Z" fill="#129578"/>
<path d="M719.137 235.715L703.15 243.857V240.68L715.414 234.772L715.314 234.971V234.474L715.414 234.673L703.15 228.765V225.588L719.137 233.73V235.715Z" fill="#129578"/>
<path d="M801.85 329.524V327.538L817.837 319.397V322.574L805.574 328.481L805.673 328.283V328.779L805.574 328.581L817.837 334.488V337.665L801.85 329.524Z" fill="#129578"/>
<path d="M832.288 340.842H824.444V315.425H832.636C835.102 315.425 837.212 315.934 838.966 316.952C840.72 317.961 842.065 319.413 843 321.308C843.935 323.194 844.403 325.453 844.403 328.084C844.403 330.732 843.931 333.011 842.988 334.922C842.044 336.825 840.671 338.29 838.867 339.316C837.063 340.333 834.87 340.842 832.288 340.842ZM827.522 338.112H832.09C834.192 338.112 835.933 337.706 837.315 336.896C838.697 336.085 839.727 334.931 840.406 333.433C841.084 331.936 841.424 330.153 841.424 328.084C841.424 326.032 841.089 324.266 840.418 322.785C839.748 321.295 838.747 320.154 837.415 319.359C836.082 318.557 834.423 318.156 832.437 318.156H827.522V338.112Z" fill="#129578"/>
<path d="M866 329.524L850.013 337.665V334.488L862.276 328.581L862.177 328.779V328.283L862.276 328.481L850.013 322.574V319.397L866 327.538V329.524Z" fill="#129578"/>
<path d="M507.51 329.524V327.538L523.497 319.397V322.574L511.234 328.481L511.333 328.283V328.779L511.234 328.581L523.497 334.488V337.665L507.51 329.524Z" fill="#129578"/>
<path d="M530.104 340.842V315.425H545.445V318.156H533.182V326.744H544.651V329.474H533.182V338.112H545.644V340.842H530.104Z" fill="#129578"/>
<path d="M567.427 329.524L551.44 337.665V334.488L563.704 328.581L563.604 328.779V328.283L563.704 328.481L551.44 322.574V319.397L567.427 327.538V329.524Z" fill="#129578"/>
<path fill-rule="evenodd" clip-rule="evenodd" d="M391.768 99.8834V74.1321H393.608V99.8834H391.768Z" fill="black"/>
<path fill-rule="evenodd" clip-rule="evenodd" d="M244.598 118.277V99.8834H246.438V118.277H244.598Z" fill="black"/>
<path fill-rule="evenodd" clip-rule="evenodd" d="M535.259 118.277V99.8834H537.098V118.277H535.259Z" fill="black"/>
<path fill-rule="evenodd" clip-rule="evenodd" d="M537.098 99.8833H244.598V98.0439H537.098V99.8833Z" fill="black"/>
<path fill-rule="evenodd" clip-rule="evenodd" d="M246.437 188.174V162.422H248.277V188.174H246.437Z" fill="black"/>
<path fill-rule="evenodd" clip-rule="evenodd" d="M99.2676 206.567V188.173H101.107V206.567H99.2676Z" fill="black"/>
<path fill-rule="evenodd" clip-rule="evenodd" d="M389.928 206.567V188.173H391.768V206.567H389.928Z" fill="black"/>
<path fill-rule="evenodd" clip-rule="evenodd" d="M391.768 188.173H99.2675V186.334H391.768V188.173Z" fill="black"/>
<path fill-rule="evenodd" clip-rule="evenodd" d="M535.259 188.174V162.422H537.098V188.174H535.259Z" fill="black"/>
<path fill-rule="evenodd" clip-rule="evenodd" d="M678.75 206.567V188.173H680.589V206.567H678.75Z" fill="black"/>
<path fill-rule="evenodd" clip-rule="evenodd" d="M680.589 188.173H535.259V186.334H680.589V188.173Z" fill="black"/>
<path fill-rule="evenodd" clip-rule="evenodd" d="M687.948 280.142V254.391H689.787V280.142H687.948Z" fill="black"/>
<path fill-rule="evenodd" clip-rule="evenodd" d="M540.778 298.536V280.142H542.617V298.536H540.778Z" fill="black"/>
<path fill-rule="evenodd" clip-rule="evenodd" d="M831.438 298.536V280.142H833.278V298.536H831.438Z" fill="black"/>
<path fill-rule="evenodd" clip-rule="evenodd" d="M833.278 280.142H540.778V278.303H833.278V280.142Z" fill="black"/>
<path fill-rule="evenodd" clip-rule="evenodd" d="M400.966 76.0226V74.1321H402.806V76.0226H400.966ZM400.966 83.5844V79.8035H402.806V83.5844H400.966ZM400.966 91.1463V87.3654H402.806V91.1463H400.966ZM400.966 98.7082V94.9273H402.806V98.7082H400.966ZM400.966 106.27V102.489H402.806V106.27H400.966ZM400.966 113.832V110.051H402.806V113.832H400.966ZM400.966 121.394V117.613H402.806V121.394H400.966ZM400.966 128.956V125.175H402.806V128.956H400.966ZM400.966 136.518V132.737H402.806V136.518H400.966ZM400.966 142.189V140.299H402.806V142.189H400.966Z" fill="#C051D2"/>
<path fill-rule="evenodd" clip-rule="evenodd" d="M643.797 259.863V258.07H645.636V259.863H643.797ZM643.797 267.037V263.45H645.636V267.037H643.797ZM643.797 274.21V270.624H645.636V274.21H643.797ZM643.797 281.384V277.797H645.636V281.384H643.797ZM643.797 288.558V284.971H645.636V288.558H643.797ZM643.797 295.731V292.144H645.636V295.731H643.797ZM643.797 302.905V299.318H645.636V302.905H643.797ZM643.797 310.078V306.492H645.636V310.078H643.797ZM643.797 317.252V313.665H645.636V317.252H643.797ZM643.797 324.426V320.839H645.636V324.426H643.797ZM643.797 329.806V328.012H645.636V329.806H643.797Z" fill="#C051D2"/>
<path fill-rule="evenodd" clip-rule="evenodd" d="M470.872 142.218V140.35H472.711V142.218H470.872ZM470.872 149.69V145.954H472.711V149.69H470.872ZM470.872 157.163V153.426H472.711V157.163H470.872ZM470.872 164.635V160.899H472.711V164.635H470.872ZM470.872 172.108V168.371H472.711V172.108H470.872ZM470.872 179.58V175.844H472.711V179.58H470.872ZM470.872 187.053V183.316H472.711V187.053H470.872ZM470.872 194.525V190.789H472.711V194.525H470.872ZM470.872 201.998V198.261H472.711V201.998H470.872ZM470.872 209.47V205.734H472.711V209.47H470.872ZM470.872 216.943V213.206H472.711V216.943H470.872ZM470.872 224.415V220.679H472.711V224.415H470.872ZM470.872 231.887V228.151H472.711V231.887H470.872ZM470.872 239.36V235.624H472.711V239.36H470.872ZM470.872 246.832V243.096H472.711V246.832H470.872ZM470.872 254.305V250.569H472.711V254.305H470.872ZM470.872 259.909V258.041H472.711V259.909H470.872Z" fill="#C051D2"/>
<path fill-rule="evenodd" clip-rule="evenodd" d="M404.696 142.189H402.806V140.35H404.696V142.189ZM412.259 142.189H408.478V140.35H412.259V142.189ZM419.822 142.189H416.041V140.35H419.822V142.189ZM427.385 142.189H423.604V140.35H427.385V142.189ZM434.948 142.189H431.167V140.35H434.948V142.189ZM442.511 142.189H438.729V140.35H442.511V142.189ZM450.074 142.189H446.292V140.35H450.074V142.189ZM457.637 142.189H453.855V140.35H457.637V142.189ZM465.2 142.189H461.418V140.35H465.2V142.189ZM470.872 142.189H468.981V140.35H470.872V142.189Z" fill="#C051D2"/>
<path fill-rule="evenodd" clip-rule="evenodd" d="M474.571 259.909H472.711V258.07H474.571V259.909ZM482.01 259.909H478.29V258.07H482.01V259.909ZM489.448 259.909H485.729V258.07H489.448V259.909ZM496.887 259.909H493.167V258.07H496.887V259.909ZM504.325 259.909H500.606V258.07H504.325V259.909ZM511.763 259.909H508.044V258.07H511.763V259.909ZM519.202 259.909H515.483V258.07H519.202V259.909ZM526.64 259.909H522.921V258.07H526.64V259.909ZM534.079 259.909H530.36V258.07H534.079V259.909ZM541.517 259.909H537.798V258.07H541.517V259.909ZM548.956 259.909H545.237V258.07H548.956V259.909ZM556.394 259.909H552.675V258.07H556.394V259.909ZM563.833 259.909H560.114V258.07H563.833V259.909ZM571.271 259.909H567.552V258.07H571.271V259.909ZM578.71 259.909H574.991V258.07H578.71V259.909ZM586.148 259.909H582.429V258.07H586.148V259.909ZM593.587 259.909H589.868V258.07H593.587V259.909ZM601.025 259.909H597.306V258.07H601.025V259.909ZM608.464 259.909H604.745V258.07H608.464V259.909ZM615.902 259.909H612.183V258.07H615.902V259.909ZM623.341 259.909H619.621V258.07H623.341V259.909ZM630.779 259.909H627.06V258.07H630.779V259.909ZM638.218 259.909H634.498V258.07H638.218V259.909ZM643.797 259.909H641.937V258.07H643.797V259.909Z" fill="#C051D2"/>
<path fill-rule="evenodd" clip-rule="evenodd" d="M647.499 329.806H645.636V327.966H647.499V329.806ZM654.949 329.806H651.224V327.966H654.949V329.806ZM662.4 329.806H658.675V327.966H662.4V329.806ZM669.85 329.806H666.125V327.966H669.85V329.806ZM677.301 329.806H673.576V327.966H677.301V329.806ZM684.751 329.806H681.026V327.966H684.751V329.806ZM692.202 329.806H688.477V327.966H692.202V329.806ZM699.652 329.806H695.927V327.966H699.652V329.806ZM707.103 329.806H703.377V327.966H707.103V329.806ZM714.553 329.806H710.828V327.966H714.553V329.806ZM722.004 329.806H718.278V327.966H722.004V329.806ZM729.454 329.806H725.729V327.966H729.454V329.806ZM736.905 329.806H733.179V327.966H736.905V329.806ZM744.355 329.806H740.63V327.966H744.355V329.806ZM751.806 329.806H748.08V327.966H751.806V329.806ZM759.256 329.806H755.531V327.966H759.256V329.806ZM766.707 329.806H762.981V327.966H766.707V329.806ZM774.157 329.806H770.432V327.966H774.157V329.806ZM781.608 329.806H777.882V327.966H781.608V329.806ZM789.058 329.806H785.333V327.966H789.058V329.806ZM794.646 329.806H792.783V327.966H794.646V329.806Z" fill="#C051D2"/>
<path d="M415.788 87.0078V70.955H421.213C422.472 70.955 423.502 71.1823 424.301 71.6369C425.106 72.0863 425.702 72.6951 426.089 73.4633C426.475 74.2314 426.669 75.0884 426.669 76.0342C426.669 76.98 426.475 77.8396 426.089 78.613C425.707 79.3864 425.117 80.003 424.317 80.4628C423.517 80.9175 422.493 81.1448 421.244 81.1448H417.356V79.4203H421.181C422.044 79.4203 422.736 79.2714 423.259 78.9736C423.781 78.6757 424.16 78.2733 424.395 77.7665C424.636 77.2544 424.756 76.677 424.756 76.0342C424.756 75.3915 424.636 74.8167 424.395 74.3098C424.16 73.8029 423.779 73.4058 423.251 73.1184C422.723 72.8257 422.023 72.6794 421.15 72.6794H417.732V87.0078H415.788Z" fill="#C051D2"/>
<path d="M429.55 87.0078V74.9682H431.337V76.7867H431.463C431.682 76.191 432.079 75.7076 432.654 75.3366C433.229 74.9656 433.877 74.7801 434.598 74.7801C434.734 74.7801 434.904 74.7827 435.108 74.7879C435.312 74.7932 435.466 74.801 435.57 74.8114V76.6926C435.508 76.6769 435.364 76.6534 435.139 76.6221C434.92 76.5855 434.687 76.5672 434.441 76.5672C433.856 76.5672 433.334 76.69 432.874 76.9356C432.419 77.176 432.058 77.5104 431.792 77.9389C431.53 78.3622 431.4 78.8455 431.4 79.389V87.0078H429.55Z" fill="#C051D2"/>
<path d="M442.289 87.2586C441.202 87.2586 440.248 86.9999 439.427 86.4826C438.612 85.9653 437.974 85.2416 437.514 84.3114C437.06 83.3813 436.832 82.2944 436.832 81.0507C436.832 79.7966 437.06 78.7018 437.514 77.7665C437.974 76.8311 438.612 76.1048 439.427 75.5874C440.248 75.0701 441.202 74.8114 442.289 74.8114C443.376 74.8114 444.327 75.0701 445.142 75.5874C445.963 76.1048 446.6 76.8311 447.055 77.7665C447.515 78.7018 447.745 79.7966 447.745 81.0507C447.745 82.2944 447.515 83.3813 447.055 84.3114C446.6 85.2416 445.963 85.9653 445.142 86.4826C444.327 86.9999 443.376 87.2586 442.289 87.2586ZM442.289 85.5969C443.114 85.5969 443.794 85.3853 444.327 84.962C444.86 84.5387 445.255 83.9822 445.511 83.2924C445.767 82.6027 445.895 81.8554 445.895 81.0507C445.895 80.246 445.767 79.4961 445.511 78.8011C445.255 78.1061 444.86 77.5444 444.327 77.1159C443.794 76.6874 443.114 76.4732 442.289 76.4732C441.463 76.4732 440.783 76.6874 440.25 77.1159C439.717 77.5444 439.323 78.1061 439.067 78.8011C438.811 79.4961 438.683 80.246 438.683 81.0507C438.683 81.8554 438.811 82.6027 439.067 83.2924C439.323 83.9822 439.717 84.5387 440.25 84.962C440.783 85.3853 441.463 85.5969 442.289 85.5969Z" fill="#C051D2"/>
<path d="M459.984 74.9682L455.531 87.0078H453.65L449.197 74.9682H451.204L454.528 84.5622H454.653L457.977 74.9682H459.984Z" fill="#C051D2"/>
<path d="M462.426 87.0078V74.9682H464.276V87.0078H462.426ZM463.367 72.9616C463.006 72.9616 462.695 72.8388 462.434 72.5932C462.178 72.3476 462.05 72.0524 462.05 71.7075C462.05 71.3626 462.178 71.0674 462.434 70.8218C462.695 70.5762 463.006 70.4534 463.367 70.4534C463.727 70.4534 464.036 70.5762 464.292 70.8218C464.553 71.0674 464.684 71.3626 464.684 71.7075C464.684 72.0524 464.553 72.3476 464.292 72.5932C464.036 72.8388 463.727 72.9616 463.367 72.9616Z" fill="#C051D2"/>
<path d="M472.211 87.2586C471.208 87.2586 470.322 87.0052 469.554 86.4983C468.786 85.9862 468.185 85.2651 467.751 84.3349C467.317 83.3996 467.1 82.2944 467.1 81.0193C467.1 79.7548 467.317 78.6574 467.751 77.7273C468.185 76.7971 468.788 76.0786 469.562 75.5718C470.335 75.0649 471.229 74.8114 472.243 74.8114C473.027 74.8114 473.646 74.9421 474.101 75.2034C474.56 75.4594 474.911 75.752 475.151 76.0812C475.397 76.4052 475.587 76.6717 475.723 76.8807H475.88V70.955H477.73V87.0078H475.943V85.158H475.723C475.587 85.3774 475.394 85.6544 475.143 85.9888C474.892 86.318 474.534 86.6133 474.069 86.8745C473.604 87.1306 472.985 87.2586 472.211 87.2586ZM472.462 85.5969C473.204 85.5969 473.831 85.4036 474.344 85.0169C474.856 84.6249 475.245 84.0841 475.512 83.3943C475.778 82.6993 475.911 81.8972 475.911 80.988C475.911 80.0892 475.781 79.3028 475.519 78.6287C475.258 77.9494 474.871 77.4216 474.359 77.0453C473.847 76.6639 473.215 76.4732 472.462 76.4732C471.678 76.4732 471.025 76.6743 470.502 77.0767C469.985 77.4738 469.596 78.0147 469.334 78.6992C469.078 79.3785 468.95 80.1415 468.95 80.988C468.95 81.845 469.081 82.6236 469.342 83.3238C469.609 84.0188 470.001 84.5727 470.518 84.9855C471.041 85.3931 471.689 85.5969 472.462 85.5969Z" fill="#C051D2"/>
<path d="M486.424 87.2586C485.264 87.2586 484.263 87.0026 483.422 86.4905C482.585 85.9731 481.94 85.252 481.485 84.3271C481.036 83.397 480.811 82.3153 480.811 81.0821C480.811 79.8488 481.036 78.7619 481.485 77.8213C481.94 76.8755 482.572 76.1387 483.382 75.6109C484.198 75.0779 485.149 74.8114 486.236 74.8114C486.863 74.8114 487.482 74.916 488.094 75.125C488.705 75.334 489.262 75.6737 489.764 76.1439C490.265 76.609 490.665 77.2256 490.963 77.9938C491.261 78.7619 491.41 79.7077 491.41 80.8312V81.6151H482.128V80.0161H489.528C489.528 79.3367 489.392 78.7306 489.121 78.1976C488.854 77.6646 488.473 77.2439 487.976 76.9356C487.485 76.6273 486.905 76.4732 486.236 76.4732C485.499 76.4732 484.861 76.656 484.323 77.0218C483.79 77.3824 483.38 77.8527 483.092 78.4327C482.805 79.0128 482.661 79.6346 482.661 80.2982V81.3642C482.661 82.2735 482.818 83.0442 483.131 83.6765C483.45 84.3036 483.892 84.7817 484.456 85.1109C485.021 85.4349 485.677 85.5969 486.424 85.5969C486.91 85.5969 487.349 85.529 487.741 85.3931C488.138 85.252 488.48 85.043 488.768 84.766C489.055 84.4839 489.277 84.1338 489.434 83.7157L491.222 84.2174C491.033 84.8235 490.717 85.3565 490.273 85.8164C489.829 86.271 489.28 86.6263 488.627 86.8824C487.974 87.1332 487.239 87.2586 486.424 87.2586Z" fill="#C051D2"/>
<path d="M739.666 304.556V320.609H737.722V304.556H739.666Z" fill="#C051D2"/>
<path d="M745.164 313.366V320.609H743.314V308.569H745.101V310.45H745.258C745.54 309.839 745.969 309.348 746.543 308.977C747.118 308.601 747.86 308.413 748.77 308.413C749.585 308.413 750.298 308.58 750.91 308.914C751.521 309.243 751.997 309.745 752.337 310.419C752.676 311.088 752.846 311.935 752.846 312.959V320.609H750.996V313.084C750.996 312.138 750.751 311.402 750.259 310.874C749.768 310.341 749.094 310.074 748.237 310.074C747.646 310.074 747.118 310.202 746.653 310.458C746.193 310.714 745.83 311.088 745.564 311.579C745.297 312.07 745.164 312.666 745.164 313.366Z" fill="#C051D2"/>
<path d="M756.227 308.569H758.077V321.487C758.077 322.229 757.949 322.871 757.693 323.415C757.442 323.958 757.061 324.379 756.548 324.677C756.041 324.975 755.401 325.124 754.628 325.124C754.565 325.124 754.502 325.124 754.44 325.124C754.377 325.124 754.314 325.124 754.251 325.124V323.399C754.314 323.399 754.372 323.399 754.424 323.399C754.476 323.399 754.534 323.399 754.596 323.399C755.161 323.399 755.574 323.232 755.835 322.898C756.096 322.568 756.227 322.098 756.227 321.487V308.569ZM757.136 306.563C756.776 306.563 756.465 306.44 756.203 306.194C755.947 305.949 755.819 305.653 755.819 305.309C755.819 304.964 755.947 304.668 756.203 304.423C756.465 304.177 756.776 304.054 757.136 304.054C757.497 304.054 757.805 304.177 758.061 304.423C758.323 304.668 758.453 304.964 758.453 305.309C758.453 305.653 758.323 305.949 758.061 306.194C757.805 306.44 757.497 306.563 757.136 306.563Z" fill="#C051D2"/>
<path d="M766.514 320.86C765.354 320.86 764.353 320.604 763.512 320.092C762.675 319.574 762.03 318.853 761.575 317.928C761.126 316.998 760.901 315.916 760.901 314.683C760.901 313.45 761.126 312.363 761.575 311.422C762.03 310.477 762.662 309.74 763.472 309.212C764.288 308.679 765.239 308.413 766.326 308.413C766.953 308.413 767.572 308.517 768.184 308.726C768.795 308.935 769.352 309.275 769.854 309.745C770.355 310.21 770.755 310.827 771.053 311.595C771.351 312.363 771.5 313.309 771.5 314.432V315.216H762.218V313.617H769.618C769.618 312.938 769.483 312.332 769.211 311.799C768.944 311.266 768.563 310.845 768.066 310.537C767.575 310.228 766.995 310.074 766.326 310.074C765.589 310.074 764.951 310.257 764.413 310.623C763.88 310.983 763.47 311.454 763.182 312.034C762.895 312.614 762.751 313.236 762.751 313.899V314.965C762.751 315.875 762.908 316.645 763.222 317.278C763.54 317.905 763.982 318.383 764.546 318.712C765.111 319.036 765.767 319.198 766.514 319.198C767 319.198 767.439 319.13 767.831 318.994C768.228 318.853 768.571 318.644 768.858 318.367C769.145 318.085 769.368 317.735 769.524 317.317L771.312 317.818C771.124 318.425 770.807 318.958 770.363 319.417C769.919 319.872 769.37 320.227 768.717 320.483C768.064 320.734 767.329 320.86 766.514 320.86Z" fill="#C051D2"/>
<path d="M779.206 320.86C778.077 320.86 777.105 320.593 776.29 320.06C775.474 319.527 774.847 318.793 774.408 317.858C773.969 316.922 773.75 315.854 773.75 314.652C773.75 313.429 773.974 312.35 774.424 311.415C774.879 310.474 775.511 309.74 776.321 309.212C777.136 308.679 778.088 308.413 779.175 308.413C780.021 308.413 780.784 308.569 781.464 308.883C782.143 309.196 782.7 309.635 783.133 310.2C783.567 310.764 783.836 311.422 783.941 312.175H782.091C781.95 311.626 781.636 311.14 781.15 310.717C780.669 310.288 780.021 310.074 779.206 310.074C778.485 310.074 777.852 310.262 777.309 310.639C776.77 311.01 776.35 311.535 776.047 312.214C775.749 312.888 775.6 313.68 775.6 314.589C775.6 315.519 775.746 316.329 776.039 317.019C776.337 317.709 776.755 318.244 777.293 318.626C777.837 319.007 778.474 319.198 779.206 319.198C779.687 319.198 780.123 319.114 780.515 318.947C780.907 318.78 781.239 318.54 781.511 318.226C781.782 317.912 781.976 317.536 782.091 317.097H783.941C783.836 317.808 783.578 318.448 783.165 319.018C782.757 319.582 782.216 320.031 781.542 320.366C780.873 320.695 780.094 320.86 779.206 320.86Z" fill="#C051D2"/>
<path d="M791.882 308.569V310.137H785.642V308.569H791.882ZM787.461 305.685H789.311V317.16C789.311 317.683 789.387 318.074 789.538 318.336C789.695 318.592 789.894 318.764 790.134 318.853C790.38 318.937 790.638 318.978 790.91 318.978C791.114 318.978 791.281 318.968 791.412 318.947C791.542 318.921 791.647 318.9 791.725 318.884L792.102 320.546C791.976 320.593 791.801 320.64 791.576 320.687C791.352 320.739 791.067 320.766 790.722 320.766C790.199 320.766 789.687 320.653 789.185 320.429C788.689 320.204 788.276 319.862 787.947 319.402C787.623 318.942 787.461 318.362 787.461 317.662V305.685Z" fill="#C051D2"/>
</svg>
