<svg width="933" height="374" viewBox="0 0 933 374" fill="none" xmlns="http://www.w3.org/2000/svg">
<rect width="933" height="374" fill="white"/>
<path d="M357.607 44.3986V42.3706L373.935 34.0559V37.3007L361.41 43.3339L361.512 43.1311V43.6381L361.41 43.4353L373.935 49.4685V52.7133L357.607 44.3986Z" fill="#129578"/>
<path d="M381.746 55.958H378.451L387.983 30H391.228L400.761 55.958H397.465L389.707 34.1066H389.504L381.746 55.958ZM382.963 45.8182H396.248V48.6066H382.963V45.8182Z" fill="#129578"/>
<path d="M421.589 44.3986L405.261 52.7133V49.4685L417.786 43.4353L417.684 43.6381V43.1311L417.786 43.3339L405.261 37.3007V34.0559L421.589 42.3706V44.3986Z" fill="#129578"/>
<path d="M507.911 140.205V138.177L524.238 129.862V133.107L511.714 139.14L511.815 138.937V139.444L511.714 139.241L524.238 145.274V148.519L507.911 140.205Z" fill="#129578"/>
<path d="M530.985 151.764V125.806H540.061C541.87 125.806 543.362 126.119 544.536 126.744C545.711 127.361 546.586 128.193 547.16 129.241C547.735 130.28 548.022 131.434 548.022 132.701C548.022 133.816 547.824 134.737 547.427 135.464C547.038 136.191 546.522 136.765 545.88 137.188C545.246 137.61 544.557 137.923 543.814 138.126V138.379C544.608 138.43 545.407 138.709 546.21 139.216C547.012 139.723 547.684 140.45 548.225 141.396C548.766 142.342 549.036 143.5 549.036 144.869C549.036 146.17 548.741 147.34 548.149 148.38C547.558 149.419 546.624 150.243 545.348 150.851C544.071 151.46 542.411 151.764 540.366 151.764H530.985ZM534.129 148.975H540.366C542.419 148.975 543.877 148.578 544.739 147.784C545.61 146.981 546.045 146.01 546.045 144.869C546.045 143.99 545.821 143.179 545.373 142.435C544.925 141.683 544.287 141.083 543.459 140.635C542.631 140.179 541.65 139.951 540.518 139.951H534.129V148.975ZM534.129 137.213H539.96C540.907 137.213 541.76 137.027 542.521 136.656C543.29 136.284 543.898 135.76 544.346 135.084C544.802 134.408 545.031 133.614 545.031 132.701C545.031 131.56 544.633 130.593 543.839 129.798C543.045 128.996 541.785 128.594 540.061 128.594H534.129V137.213Z" fill="#129578"/>
<path d="M570.986 140.205L554.658 148.519V145.274L567.183 139.241L567.081 139.444V138.937L567.183 139.14L554.658 133.107V129.862L570.986 138.177V140.205Z" fill="#129578"/>
<path d="M207.303 140.205V138.177L223.631 129.862V133.107L211.106 139.14L211.208 138.937V139.444L211.106 139.241L223.631 145.274V148.519L207.303 140.205Z" fill="#129578"/>
<path d="M231.899 125.806L238.592 136.605H238.795L245.488 125.806H249.19L241.026 138.785L249.19 151.764H245.488L238.795 141.168H238.592L231.899 151.764H228.198L236.564 138.785L228.198 125.806H231.899Z" fill="#129578"/>
<path d="M270.065 140.205L253.738 148.519V145.274L266.262 139.241L266.161 139.444V138.937L266.262 139.14L253.738 133.107V129.862L270.065 138.177V140.205Z" fill="#129578"/>
<path d="M57 236.01V233.982L73.3274 225.668V228.912L60.803 234.945L60.9044 234.743V235.25L60.803 235.047L73.3274 241.08V244.325L57 236.01Z" fill="#129578"/>
<path d="M77.8434 221.612H81.4435L88.6438 233.729H88.948L96.1483 221.612H99.7484L90.3678 236.872V247.57H87.224V236.872L77.8434 221.612Z" fill="#129578"/>
<path d="M120.598 236.01L104.271 244.325V241.08L116.795 235.047L116.694 235.25V234.743L116.795 234.945L104.271 228.912V225.668L120.598 233.982V236.01Z" fill="#129578"/>
<path d="M357.607 236.01V233.982L373.935 225.668V228.912L361.41 234.945L361.512 234.743V235.25L361.41 235.047L373.935 241.08V244.325L357.607 236.01Z" fill="#129578"/>
<path d="M379.82 247.57V245.288L393.814 224.4H379.667V221.612H397.567V223.893L383.572 244.781H397.719V247.57H379.82Z" fill="#129578"/>
<path d="M419.776 236.01L403.449 244.325V241.08L415.973 235.047L415.872 235.25V234.743L415.973 234.945L403.449 228.912V225.668L419.776 233.982V236.01Z" fill="#129578"/>
<path d="M658.214 236.01V233.982L674.541 225.667V228.912L662.017 234.945L662.118 234.742V235.249L662.017 235.047L674.541 241.08V244.325L658.214 236.01Z" fill="#129578"/>
<path d="M702.179 229.723H699.036C698.85 228.819 698.524 228.025 698.06 227.34C697.603 226.656 697.045 226.081 696.386 225.616C695.735 225.143 695.013 224.788 694.219 224.552C693.424 224.315 692.596 224.197 691.734 224.197C690.162 224.197 688.738 224.594 687.462 225.388C686.194 226.183 685.184 227.353 684.432 228.899C683.689 230.446 683.317 232.343 683.317 234.59C683.317 236.838 683.689 238.735 684.432 240.281C685.184 241.828 686.194 242.998 687.462 243.792C688.738 244.586 690.162 244.984 691.734 244.984C692.596 244.984 693.424 244.865 694.219 244.629C695.013 244.392 695.735 244.041 696.386 243.577C697.045 243.104 697.603 242.525 698.06 241.84C698.524 241.147 698.85 240.353 699.036 239.457H702.179C701.943 240.784 701.512 241.971 700.886 243.019C700.261 244.067 699.484 244.958 698.554 245.693C697.624 246.42 696.581 246.974 695.423 247.354C694.273 247.734 693.044 247.924 691.734 247.924C689.52 247.924 687.551 247.383 685.827 246.302C684.103 245.22 682.746 243.682 681.758 241.688C680.769 239.694 680.274 237.328 680.274 234.59C680.274 231.852 680.769 229.487 681.758 227.492C682.746 225.498 684.103 223.96 685.827 222.879C687.551 221.797 689.52 221.256 691.734 221.256C693.044 221.256 694.273 221.446 695.423 221.827C696.581 222.207 697.624 222.765 698.554 223.5C699.484 224.226 700.261 225.114 700.886 226.162C701.512 227.201 701.943 228.388 702.179 229.723Z" fill="#129578"/>
<path d="M724.043 236.01L707.716 244.325V241.08L720.24 235.047L720.139 235.249V234.742L720.24 234.945L707.716 228.912V225.667L724.043 233.982V236.01Z" fill="#129578"/>
<path d="M808.518 331.816V329.788L824.845 321.473V324.718L812.32 330.751L812.422 330.548V331.055L812.32 330.852L824.845 336.886V340.13L808.518 331.816Z" fill="#129578"/>
<path d="M839.604 343.375H831.592V317.417H839.958C842.477 317.417 844.632 317.937 846.423 318.976C848.215 320.007 849.588 321.49 850.543 323.425C851.498 325.351 851.976 327.658 851.976 330.345C851.976 333.049 851.494 335.377 850.531 337.329C849.567 339.273 848.164 340.768 846.322 341.816C844.48 342.855 842.24 343.375 839.604 343.375ZM834.736 340.587H839.401C841.547 340.587 843.326 340.173 844.737 339.344C846.149 338.516 847.201 337.338 847.894 335.808C848.587 334.279 848.933 332.458 848.933 330.345C848.933 328.25 848.591 326.446 847.907 324.933C847.222 323.412 846.2 322.246 844.839 321.435C843.478 320.615 841.784 320.205 839.756 320.205H834.736V340.587Z" fill="#129578"/>
<path d="M874.033 331.816L857.706 340.13V336.886L870.23 330.852L870.129 331.055V330.548L870.23 330.751L857.706 324.718V321.473L874.033 329.788V331.816Z" fill="#129578"/>
<path d="M507.911 331.816V329.788L524.238 321.473V324.718L511.714 330.751L511.815 330.548V331.055L511.714 330.852L524.238 336.886V340.13L507.911 331.816Z" fill="#129578"/>
<path d="M530.985 343.375V317.417H546.653V320.205H534.129V328.976H545.842V331.765H534.129V340.587H546.856V343.375H530.985Z" fill="#129578"/>
<path d="M569.103 331.816L552.776 340.13V336.886L565.3 330.852L565.199 331.055V330.548L565.3 330.751L552.776 324.718V321.473L569.103 329.788V331.816Z" fill="#129578"/>
<path fill-rule="evenodd" clip-rule="evenodd" d="M389.704 97.2862V70.9866H391.583V97.2862H389.704Z" fill="black"/>
<path fill-rule="evenodd" clip-rule="evenodd" d="M239.401 116.072V97.2861H241.279V116.072H239.401Z" fill="black"/>
<path fill-rule="evenodd" clip-rule="evenodd" d="M536.25 116.072V97.2861H538.129V116.072H536.25Z" fill="black"/>
<path fill-rule="evenodd" clip-rule="evenodd" d="M538.129 97.286H239.401V95.4075H538.129V97.286Z" fill="black"/>
<path fill-rule="evenodd" clip-rule="evenodd" d="M615.159 72.865V42.8083H617.038V72.865H615.159Z" fill="#1D6AC5"/>
<path fill-rule="evenodd" clip-rule="evenodd" d="M750.432 264.476V99.1646H752.311V264.476H750.432Z" fill="#1D6AC5"/>
<path fill-rule="evenodd" clip-rule="evenodd" d="M851.887 300.169V264.476H853.766V300.169H851.887Z" fill="#1D6AC5"/>
<path fill-rule="evenodd" clip-rule="evenodd" d="M617.038 44.6869H434.795V42.8083H617.038V44.6869Z" fill="#1D6AC5"/>
<path fill-rule="evenodd" clip-rule="evenodd" d="M699.705 72.8651H615.159V70.9866H699.705V72.8651Z" fill="#1D6AC5"/>
<path fill-rule="evenodd" clip-rule="evenodd" d="M853.766 264.476H750.432V262.598H853.766V264.476Z" fill="#1D6AC5"/>
<path fill-rule="evenodd" clip-rule="evenodd" d="M241.279 187.456V161.156H243.158V187.456H241.279Z" fill="black"/>
<path fill-rule="evenodd" clip-rule="evenodd" d="M90.9758 206.241V187.456H92.8546V206.241H90.9758Z" fill="black"/>
<path fill-rule="evenodd" clip-rule="evenodd" d="M387.825 206.241V187.456H389.704V206.241H387.825Z" fill="black"/>
<path fill-rule="evenodd" clip-rule="evenodd" d="M389.704 187.456H90.9758V185.578H389.704V187.456Z" fill="black"/>
<path fill-rule="evenodd" clip-rule="evenodd" d="M536.25 187.456V161.156H538.129V187.456H536.25Z" fill="black"/>
<path fill-rule="evenodd" clip-rule="evenodd" d="M682.796 206.241V187.456H684.675V206.241H682.796Z" fill="black"/>
<path fill-rule="evenodd" clip-rule="evenodd" d="M684.675 187.456H536.25V185.578H684.675V187.456Z" fill="black"/>
<path fill-rule="evenodd" clip-rule="evenodd" d="M692.19 281.383V255.083H694.068V281.383H692.19Z" fill="black"/>
<path fill-rule="evenodd" clip-rule="evenodd" d="M541.886 300.168V281.383H543.765V300.168H541.886Z" fill="black"/>
<path fill-rule="evenodd" clip-rule="evenodd" d="M838.736 300.168V281.383H840.614V300.168H838.736Z" fill="black"/>
<path fill-rule="evenodd" clip-rule="evenodd" d="M840.614 281.383H541.886V279.505H840.614V281.383Z" fill="black"/>
<path d="M697.826 46.5654H803.038V104.8H697.826V46.5654Z" fill="#1D6AC5"/>
<path d="M738.917 64.6677C738.853 64.127 738.593 63.7071 738.137 63.4083C737.682 63.1094 737.123 62.96 736.461 62.96C735.978 62.96 735.554 63.0382 735.191 63.1948C734.832 63.3513 734.551 63.5666 734.348 63.8405C734.149 64.1145 734.049 64.4258 734.049 64.7745C734.049 65.0662 734.118 65.317 734.257 65.527C734.399 65.7333 734.581 65.9059 734.801 66.0446C735.022 66.1798 735.253 66.2919 735.495 66.3808C735.737 66.4662 735.96 66.5356 736.163 66.589L737.273 66.8878C737.557 66.9626 737.874 67.0657 738.223 67.1974C738.575 67.329 738.911 67.5087 739.232 67.7364C739.555 67.9605 739.822 68.2487 740.032 68.6009C740.242 68.9532 740.347 69.3854 740.347 69.8978C740.347 70.4884 740.192 71.0221 739.883 71.4988C739.577 71.9756 739.128 72.3545 738.538 72.6355C737.951 72.9166 737.237 73.0571 736.397 73.0571C735.615 73.0571 734.937 72.9308 734.364 72.6782C733.794 72.4256 733.346 72.0734 733.019 71.6215C732.695 71.1697 732.512 70.6449 732.469 70.0472H733.835C733.871 70.4599 734.01 70.8015 734.252 71.0719C734.497 71.3387 734.807 71.5379 735.18 71.6696C735.558 71.7977 735.963 71.8617 736.397 71.8617C736.903 71.8617 737.356 71.7799 737.758 71.6162C738.161 71.449 738.479 71.2177 738.714 70.9224C738.949 70.6236 739.066 70.2749 739.066 69.8764C739.066 69.5135 738.965 69.2182 738.762 68.9905C738.559 68.7628 738.292 68.5778 737.961 68.4355C737.63 68.2932 737.273 68.1687 736.888 68.0619L735.543 67.6777C734.689 67.4322 734.013 67.0817 733.515 66.6263C733.017 66.1709 732.768 65.575 732.768 64.8385C732.768 64.2266 732.933 63.6929 733.264 63.2375C733.599 62.7785 734.047 62.4227 734.609 62.1701C735.175 61.914 735.807 61.7859 736.504 61.7859C737.209 61.7859 737.835 61.9122 738.383 62.1648C738.931 62.4138 739.365 62.7554 739.685 63.1895C740.009 63.6235 740.18 64.1163 740.198 64.6677H738.917Z" fill="white"/>
<path d="M745.918 64.6677V65.7351H741.67V64.6677H745.918ZM742.908 62.7038H744.167V70.5168C744.167 70.8726 744.219 71.1395 744.322 71.3174C744.429 71.4917 744.564 71.6091 744.728 71.6696C744.895 71.7265 745.071 71.755 745.256 71.755C745.395 71.755 745.509 71.7479 745.598 71.7336C745.687 71.7158 745.758 71.7016 745.811 71.6909L746.068 72.8223C745.982 72.8543 745.863 72.8864 745.71 72.9184C745.557 72.954 745.363 72.9718 745.128 72.9718C744.772 72.9718 744.424 72.8953 744.082 72.7423C743.744 72.5893 743.463 72.3562 743.239 72.0432C743.018 71.7301 742.908 71.3351 742.908 70.8584V62.7038Z" fill="white"/>
<path d="M750.225 73.0571C749.706 73.0571 749.234 72.9593 748.811 72.7636C748.388 72.5644 748.051 72.278 747.802 71.9044C747.553 71.5273 747.429 71.0719 747.429 70.5382C747.429 70.0685 747.521 69.6879 747.706 69.3961C747.891 69.1008 748.139 68.8696 748.448 68.7023C748.758 68.5351 749.099 68.4106 749.473 68.3288C749.85 68.2434 750.229 68.1758 750.61 68.126C751.108 68.0619 751.512 68.0139 751.821 67.9819C752.135 67.9463 752.362 67.8876 752.505 67.8058C752.65 67.7239 752.723 67.5816 752.723 67.3788V67.3361C752.723 66.8096 752.579 66.4004 752.291 66.1087C752.006 65.8169 751.574 65.6711 750.994 65.6711C750.393 65.6711 749.921 65.8027 749.58 66.066C749.238 66.3293 748.998 66.6103 748.859 66.9092L747.663 66.4822C747.877 65.9841 748.162 65.5963 748.517 65.3188C748.877 65.0378 749.268 64.8421 749.692 64.7318C750.119 64.6179 750.539 64.561 750.951 64.561C751.215 64.561 751.517 64.593 751.859 64.6571C752.204 64.7176 752.537 64.8439 752.857 65.036C753.181 65.2281 753.449 65.5181 753.663 65.9059C753.876 66.2937 753.983 66.8131 753.983 67.4642V72.865H752.723V71.755H752.659C752.574 71.9329 752.432 72.1232 752.232 72.326C752.033 72.5288 751.768 72.7014 751.437 72.8437C751.106 72.986 750.702 73.0571 750.225 73.0571ZM750.418 71.9257C750.916 71.9257 751.336 71.8279 751.677 71.6322C752.022 71.4365 752.282 71.1839 752.457 70.8744C752.634 70.5649 752.723 70.2393 752.723 69.8978V68.745C752.67 68.8091 752.553 68.8678 752.371 68.9211C752.193 68.971 751.987 69.0154 751.752 69.0546C751.521 69.0901 751.295 69.1222 751.074 69.1506C750.857 69.1755 750.681 69.1969 750.546 69.2147C750.218 69.2574 749.912 69.3267 749.628 69.4228C749.347 69.5153 749.119 69.6558 748.944 69.8444C748.774 70.0294 748.688 70.282 748.688 70.6022C748.688 71.0398 748.85 71.3707 749.174 71.5949C749.501 71.8155 749.916 71.9257 750.418 71.9257Z" fill="white"/>
<path d="M759.848 64.6677V65.7351H755.599V64.6677H759.848ZM756.837 62.7038H758.097V70.5168C758.097 70.8726 758.149 71.1395 758.252 71.3174C758.358 71.4917 758.494 71.6091 758.657 71.6696C758.825 71.7265 759.001 71.755 759.186 71.755C759.325 71.755 759.438 71.7479 759.527 71.7336C759.616 71.7158 759.688 71.7016 759.741 71.6909L759.997 72.8223C759.912 72.8543 759.792 72.8864 759.639 72.9184C759.486 72.954 759.293 72.9718 759.058 72.9718C758.702 72.9718 758.353 72.8953 758.012 72.7423C757.673 72.5893 757.392 72.3562 757.168 72.0432C756.948 71.7301 756.837 71.3351 756.837 70.8584V62.7038Z" fill="white"/>
<path d="M765.092 73.0358C764.302 73.0358 763.62 72.8615 763.047 72.5128C762.478 72.1606 762.039 71.6696 761.729 71.0398C761.423 70.4065 761.27 69.6701 761.27 68.8304C761.27 67.9908 761.423 67.2507 761.729 66.6103C762.039 65.9664 762.469 65.4647 763.021 65.1054C763.576 64.7425 764.223 64.561 764.964 64.561C765.391 64.561 765.812 64.6322 766.229 64.7745C766.645 64.9168 767.024 65.1481 767.365 65.4683C767.707 65.7849 767.979 66.2047 768.182 66.7277C768.385 67.2507 768.486 67.8947 768.486 68.6596V69.1933H762.167V68.1046H767.205C767.205 67.6421 767.113 67.2294 766.928 66.8665C766.746 66.5036 766.487 66.2172 766.149 66.0073C765.814 65.7974 765.419 65.6924 764.964 65.6924C764.462 65.6924 764.028 65.8169 763.661 66.066C763.298 66.3115 763.019 66.6317 762.823 67.0266C762.628 67.4215 762.53 67.8449 762.53 68.2967V69.0225C762.53 69.6416 762.636 70.1664 762.85 70.5969C763.067 71.0238 763.368 71.3494 763.752 71.5735C764.136 71.7941 764.583 71.9044 765.092 71.9044C765.423 71.9044 765.722 71.8581 765.988 71.7656C766.259 71.6696 766.492 71.5273 766.688 71.3387C766.883 71.1466 767.035 70.9082 767.141 70.6236L768.358 70.9651C768.23 71.3778 768.015 71.7407 767.712 72.0538C767.41 72.3634 767.036 72.6053 766.592 72.7796C766.147 72.9504 765.647 73.0358 765.092 73.0358Z" fill="white"/>
<path d="M720.455 80.7207H722.035L725.75 89.7932H725.878L729.593 80.7207H731.173V91.6504H729.934V83.3464H729.828L726.412 91.6504H725.216L721.8 83.3464H721.693V91.6504H720.455V80.7207Z" fill="white"/>
<path d="M736.068 91.8426C735.549 91.8426 735.077 91.7447 734.654 91.549C734.231 91.3498 733.894 91.0634 733.645 90.6898C733.396 90.3127 733.272 89.8573 733.272 89.3236C733.272 88.854 733.364 88.4733 733.549 88.1815C733.734 87.8862 733.982 87.655 734.291 87.4878C734.601 87.3205 734.942 87.196 735.316 87.1142C735.693 87.0288 736.072 86.9612 736.453 86.9114C736.951 86.8473 737.355 86.7993 737.664 86.7673C737.978 86.7317 738.205 86.673 738.348 86.5912C738.493 86.5093 738.566 86.367 738.566 86.1642V86.1215C738.566 85.595 738.422 85.1858 738.134 84.8941C737.849 84.6023 737.417 84.4565 736.837 84.4565C736.236 84.4565 735.764 84.5881 735.423 84.8514C735.081 85.1147 734.841 85.3957 734.702 85.6946L733.506 85.2677C733.72 84.7696 734.005 84.3818 734.36 84.1042C734.72 83.8232 735.111 83.6275 735.535 83.5172C735.962 83.4033 736.382 83.3464 736.794 83.3464C737.058 83.3464 737.36 83.3784 737.702 83.4425C738.047 83.503 738.38 83.6293 738.7 83.8214C739.024 84.0135 739.292 84.3035 739.506 84.6913C739.719 85.0791 739.826 85.5985 739.826 86.2496V91.6504H738.566V90.5404H738.502C738.417 90.7183 738.275 90.9086 738.075 91.1114C737.876 91.3142 737.611 91.4868 737.28 91.6291C736.949 91.7714 736.545 91.8426 736.068 91.8426ZM736.261 90.7112C736.759 90.7112 737.179 90.6133 737.52 90.4176C737.865 90.222 738.125 89.9693 738.3 89.6598C738.477 89.3503 738.566 89.0247 738.566 88.6832V87.5304C738.513 87.5945 738.396 87.6532 738.214 87.7066C738.036 87.7564 737.83 87.8008 737.595 87.84C737.364 87.8756 737.138 87.9076 736.917 87.936C736.7 87.9609 736.524 87.9823 736.389 88.0001C736.061 88.0428 735.755 88.1122 735.471 88.2082C735.19 88.3007 734.962 88.4413 734.787 88.6298C734.617 88.8148 734.531 89.0674 734.531 89.3876C734.531 89.8253 734.693 90.1561 735.017 90.3803C735.344 90.6009 735.759 90.7112 736.261 90.7112Z" fill="white"/>
<path d="M743.385 86.7193V91.6504H742.125V83.4532H743.342V84.734H743.449C743.641 84.3177 743.933 83.9833 744.324 83.7307C744.716 83.4745 745.221 83.3464 745.84 83.3464C746.395 83.3464 746.881 83.4603 747.297 83.688C747.714 83.9121 748.037 84.2537 748.269 84.7126C748.5 85.168 748.616 85.7444 748.616 86.4417V91.6504H747.356V86.5271C747.356 85.8832 747.189 85.3815 746.854 85.0222C746.52 84.6593 746.061 84.4778 745.477 84.4778C745.075 84.4778 744.716 84.565 744.399 84.7393C744.086 84.9137 743.839 85.168 743.657 85.5025C743.476 85.8369 743.385 86.2425 743.385 86.7193Z" fill="white"/>
<path d="M753.33 91.8426C752.81 91.8426 752.339 91.7447 751.915 91.549C751.492 91.3498 751.156 91.0634 750.907 90.6898C750.658 90.3127 750.533 89.8573 750.533 89.3236C750.533 88.854 750.626 88.4733 750.811 88.1815C750.996 87.8862 751.243 87.655 751.553 87.4878C751.862 87.3205 752.204 87.196 752.577 87.1142C752.954 87.0288 753.333 86.9612 753.714 86.9114C754.212 86.8473 754.616 86.7993 754.926 86.7673C755.239 86.7317 755.467 86.673 755.609 86.5912C755.755 86.5093 755.828 86.367 755.828 86.1642V86.1215C755.828 85.595 755.684 85.1858 755.396 84.8941C755.111 84.6023 754.678 84.4565 754.098 84.4565C753.497 84.4565 753.026 84.5881 752.684 84.8514C752.342 85.1147 752.102 85.3957 751.964 85.6946L750.768 85.2677C750.981 84.7696 751.266 84.3818 751.622 84.1042C751.981 83.8232 752.373 83.6275 752.796 83.5172C753.223 83.4033 753.643 83.3464 754.056 83.3464C754.319 83.3464 754.622 83.3784 754.963 83.4425C755.308 83.503 755.641 83.6293 755.961 83.8214C756.285 84.0135 756.554 84.3035 756.767 84.6913C756.981 85.0791 757.087 85.5985 757.087 86.2496V91.6504H755.828V90.5404H755.764C755.678 90.7183 755.536 90.9086 755.337 91.1114C755.138 91.3142 754.872 91.4868 754.542 91.6291C754.211 91.7714 753.807 91.8426 753.33 91.8426ZM753.522 90.7112C754.02 90.7112 754.44 90.6133 754.782 90.4176C755.127 90.222 755.387 89.9693 755.561 89.6598C755.739 89.3503 755.828 89.0247 755.828 88.6832V87.5304C755.774 87.5945 755.657 87.6532 755.476 87.7066C755.298 87.7564 755.091 87.8008 754.856 87.84C754.625 87.8756 754.399 87.9076 754.179 87.936C753.961 87.9609 753.785 87.9823 753.65 88.0001C753.323 88.0428 753.017 88.1122 752.732 88.2082C752.451 88.3007 752.223 88.4413 752.049 88.6298C751.878 88.8148 751.793 89.0674 751.793 89.3876C751.793 89.8253 751.955 90.1561 752.278 90.3803C752.606 90.6009 753.02 90.7112 753.522 90.7112Z" fill="white"/>
<path d="M762.696 94.8952C762.087 94.8952 761.564 94.8169 761.127 94.6604C760.689 94.5074 760.324 94.3046 760.032 94.052C759.744 93.8029 759.515 93.5361 759.344 93.2515L760.347 92.547C760.461 92.6964 760.605 92.8672 760.78 93.0593C760.954 93.255 761.192 93.424 761.495 93.5663C761.801 93.7122 762.201 93.7851 762.696 93.7851C763.358 93.7851 763.904 93.625 764.334 93.3048C764.765 92.9846 764.98 92.483 764.98 91.7999V90.1348H764.874C764.781 90.2842 764.649 90.4692 764.479 90.6898C764.311 90.9068 764.069 91.1007 763.753 91.2715C763.44 91.4387 763.016 91.5223 762.482 91.5223C761.82 91.5223 761.226 91.3658 760.7 91.0527C760.177 90.7396 759.762 90.2842 759.456 89.6865C759.154 89.0888 759.002 88.363 759.002 87.5091C759.002 86.6694 759.15 85.9383 759.445 85.3157C759.741 84.6895 760.152 84.2056 760.678 83.8641C761.205 83.519 761.813 83.3464 762.504 83.3464C763.037 83.3464 763.461 83.4354 763.774 83.6133C764.091 83.7876 764.333 83.9868 764.5 84.211C764.671 84.4316 764.802 84.613 764.895 84.7553H765.023V83.4532H766.24V91.8852C766.24 92.5897 766.08 93.1625 765.76 93.6037C765.443 94.0484 765.016 94.374 764.479 94.5803C763.945 94.7902 763.351 94.8952 762.696 94.8952ZM762.653 90.391C763.158 90.391 763.585 90.2753 763.934 90.0441C764.283 89.8128 764.548 89.4801 764.729 89.0461C764.911 88.612 765.002 88.0926 765.002 87.4878C765.002 86.8972 764.913 86.3759 764.735 85.9241C764.557 85.4722 764.294 85.1182 763.945 84.8621C763.596 84.6059 763.166 84.4778 762.653 84.4778C762.119 84.4778 761.675 84.613 761.319 84.8834C760.966 85.1538 760.701 85.5167 760.523 85.9721C760.349 86.4275 760.262 86.9327 760.262 87.4878C760.262 88.057 760.351 88.5604 760.529 88.9981C760.71 89.4321 760.977 89.7737 761.329 90.0227C761.685 90.2682 762.127 90.391 762.653 90.391Z" fill="white"/>
<path d="M771.983 91.8212C771.193 91.8212 770.512 91.6469 769.939 91.2982C769.369 90.946 768.93 90.455 768.62 89.8253C768.314 89.192 768.161 88.4555 768.161 87.6158C768.161 86.7762 768.314 86.0362 768.62 85.3957C768.93 84.7518 769.361 84.2501 769.912 83.8908C770.467 83.5279 771.115 83.3464 771.855 83.3464C772.282 83.3464 772.704 83.4176 773.12 83.5599C773.536 83.7022 773.915 83.9335 774.257 84.2537C774.598 84.5703 774.871 84.9901 775.073 85.5132C775.276 86.0362 775.378 86.6801 775.378 87.4451V87.9787H769.058V86.89H774.097C774.097 86.4275 774.004 86.0148 773.819 85.6519C773.638 85.289 773.378 85.0026 773.04 84.7927C772.705 84.5828 772.31 84.4778 771.855 84.4778C771.353 84.4778 770.919 84.6023 770.553 84.8514C770.19 85.0969 769.91 85.4171 769.715 85.812C769.519 86.2069 769.421 86.6303 769.421 87.0822V87.808C769.421 88.427 769.528 88.9518 769.741 89.3823C769.958 89.8092 770.259 90.1348 770.643 90.3589C771.028 90.5795 771.474 90.6898 771.983 90.6898C772.314 90.6898 772.613 90.6436 772.88 90.5511C773.15 90.455 773.383 90.3127 773.579 90.1241C773.775 89.932 773.926 89.6936 774.033 89.409L775.25 89.7505C775.121 90.1633 774.906 90.5262 774.604 90.8392C774.301 91.1488 773.928 91.3907 773.483 91.565C773.038 91.7358 772.538 91.8212 771.983 91.8212Z" fill="white"/>
<path d="M777.294 91.6504V83.4532H778.511V84.6913H778.596C778.746 84.2857 779.016 83.9566 779.407 83.704C779.799 83.4514 780.24 83.3251 780.731 83.3251C780.824 83.3251 780.939 83.3269 781.078 83.3304C781.217 83.334 781.322 83.3393 781.393 83.3464V84.6272C781.35 84.6166 781.252 84.6006 781.099 84.5792C780.95 84.5543 780.792 84.5419 780.624 84.5419C780.226 84.5419 779.87 84.6255 779.557 84.7927C779.247 84.9563 779.002 85.1841 778.82 85.4758C778.642 85.764 778.554 86.0931 778.554 86.4631V91.6504H777.294Z" fill="white"/>
</svg>
