<svg width="924" height="924" viewBox="0 0 924 924" fill="none" xmlns="http://www.w3.org/2000/svg">
<rect width="924" height="924" fill="#FAFAFA"/>
<path d="M410.752 263.29V317.044H240.242V435.534H373.182V489.288H240.242V665H174.35V263.29H410.752ZM680.475 665L587.995 504.316H537.709V665H471.817V263.29H610.537C641.363 263.29 667.373 268.685 688.567 279.474C710.145 290.263 726.137 304.713 736.541 322.824C747.33 340.935 752.725 361.165 752.725 383.514C752.725 409.717 745.018 433.607 729.605 455.186C714.577 476.379 691.264 490.829 659.667 498.536L759.083 665H680.475ZM537.709 451.718H610.537C635.198 451.718 653.694 445.553 666.025 433.222C678.741 420.891 685.099 404.322 685.099 383.514C685.099 362.706 678.933 346.522 666.603 334.962C654.272 323.017 635.583 317.044 610.537 317.044H537.709V451.718Z" fill="#00584E"/>
</svg>
